<?xml version="1.0" encoding="utf-8"?>
<!-- Generator: Adobe Illustrator 19.0.1, SVG Export Plug-In . SVG Version: 6.00 Build 0)  -->
<svg version="1.1"
	 id="svg2" xmlns:svg="http://www.w3.org/2000/svg" xmlns:rdf="http://www.w3.org/1999/02/22-rdf-syntax-ns#" xmlns:dc="http://purl.org/dc/elements/1.1/" xmlns:cc="http://creativecommons.org/ns#"
	 xmlns="http://www.w3.org/2000/svg" xmlns:xlink="http://www.w3.org/1999/xlink" x="0px" y="0px"
	 viewBox="-90.5 365.8 308.5 100.5" style="enable-background:new -90.5 365.8 308.5 100.5;" xml:space="preserve">
<style type="text/css">
	.st0{clip-path:url(#SVGID_2_);}
	.st1{fill:#FB5551;}
	.st2{fill:#FFFFFF;}
</style>
<g id="g10" transform="matrix(1.25,0,0,-1.25,0,250)">
	<g id="g12">
		<g>
			<defs>
				<rect id="SVGID_1_" x="-136.2" y="-257.2" width="375" height="250"/>
			</defs>
			<clipPath id="SVGID_2_">
				<use xlink:href="#SVGID_1_"  style="overflow:visible;"/>
			</clipPath>
			<g id="g14" class="st0">
				<g id="g20" transform="translate(112.3315,90.4102)">
					<path id="path22" class="st1" d="M-98.7-232.2l-37.5-25.3c-0.6-0.4-1.3-0.4-1.9,0l-37.5,25.3c-0.1,0.1-0.1,0.2-0.1,0.3
						c0,0.1,0,0.2,0.1,0.3l37.5,25.3c0.6,0.4,1.3,0.4,1.9,0l37.5-25.3c0.1-0.1,0.1-0.2,0.1-0.3C-98.6-232-98.6-232.1-98.7-232.2
						 M-97.1-229.2l-37.5,25.3c-1.6,1.1-3.7,1.1-5.3,0l-37.5-25.3c-0.9-0.6-1.5-1.6-1.5-2.7c0-1.1,0.5-2.1,1.5-2.7l37.5-25.3
						c0.8-0.5,1.7-0.8,2.6-0.8c0.9,0,1.8,0.3,2.6,0.8l37.5,25.3c0.9,0.6,1.4,1.6,1.4,2.7C-95.6-230.9-96.2-229.9-97.1-229.2
						 M12.1-241.8c-0.1,0.3-0.2,0.5-0.4,0.7c-0.2,0.2-0.4,0.4-0.7,0.5c-0.3,0.1-0.6,0.2-0.9,0.2c-0.4,0-0.8-0.1-1.1-0.3
						c-0.3-0.2-0.6-0.5-0.8-0.8c-0.2,0.4-0.4,0.7-0.7,0.9c-0.3,0.2-0.7,0.3-1,0.3c-0.4,0-0.8-0.1-1.1-0.3c-0.3-0.2-0.5-0.5-0.7-0.8
						h0c0,0.1,0,0.3,0,0.4c0,0.2,0,0.3,0,0.5H3.4c0-0.2,0-0.4,0-0.6c0-0.2,0-0.4,0-0.6v-4.5h1.1v3c0,0.6,0.1,1,0.4,1.4
						c0.3,0.3,0.6,0.5,1,0.5c0.2,0,0.4,0,0.6-0.1c0.2-0.1,0.3-0.2,0.4-0.3c0.1-0.1,0.2-0.3,0.2-0.5c0-0.2,0.1-0.4,0.1-0.6v-3.4h1.1
						v3.1c0,0.2,0,0.4,0.1,0.7c0.1,0.2,0.1,0.4,0.3,0.6c0.1,0.2,0.3,0.3,0.5,0.4c0.2,0.1,0.4,0.2,0.7,0.2c0.2,0,0.5,0,0.6-0.1
						c0.2-0.1,0.3-0.2,0.4-0.4c0.1-0.2,0.2-0.3,0.2-0.6c0-0.2,0.1-0.4,0.1-0.7v-3.2h1.1v3.5C12.2-242.4,12.1-242.1,12.1-241.8
						 M0.7-243.9c0-0.5-0.1-0.9-0.4-1.2c-0.3-0.3-0.7-0.5-1.2-0.5c-0.1,0-0.3,0-0.4,0c-0.1,0-0.3,0.1-0.4,0.2
						c-0.1,0.1-0.2,0.2-0.3,0.3c-0.1,0.1-0.1,0.3-0.1,0.4c0,0.2,0.1,0.4,0.2,0.6c0.2,0.1,0.4,0.3,0.6,0.3c0.2,0.1,0.5,0.1,0.8,0.1
						c0.3,0,0.6,0,0.9,0h0.3C0.7-243.6,0.7-243.9,0.7-243.9z M1.8-245.1v2.5c0,0.3,0,0.6-0.1,0.9c-0.1,0.3-0.2,0.5-0.4,0.7
						c-0.2,0.2-0.4,0.4-0.7,0.5c-0.3,0.1-0.7,0.2-1.1,0.2c-0.5,0-0.9-0.1-1.3-0.2c-0.4-0.2-0.7-0.4-1-0.6l0.6-0.7
						c0.2,0.2,0.4,0.3,0.7,0.5c0.3,0.1,0.6,0.2,0.9,0.2c0.4,0,0.8-0.1,1-0.3c0.3-0.2,0.4-0.5,0.4-0.9v-0.2c-0.5,0-1,0-1.4-0.1
						c-0.5,0-0.9-0.1-1.3-0.3c-0.4-0.1-0.7-0.3-0.9-0.6c-0.2-0.3-0.3-0.6-0.3-1c0-0.3,0.1-0.6,0.2-0.8c0.1-0.2,0.3-0.4,0.5-0.5
						c0.2-0.1,0.4-0.2,0.7-0.3c0.2-0.1,0.5-0.1,0.7-0.1c0.4,0,0.8,0.1,1.1,0.3c0.3,0.2,0.6,0.4,0.8,0.7h0c0-0.3,0-0.5,0.1-0.8h1
						c0,0.1-0.1,0.3-0.1,0.5C1.8-245.5,1.8-245.3,1.8-245.1 M-8.7-242.9c0,0.2,0.1,0.4,0.2,0.6c0.1,0.2,0.2,0.4,0.4,0.5
						c0.2,0.1,0.3,0.3,0.6,0.3c0.2,0.1,0.4,0.1,0.7,0.1c0.3,0,0.5,0,0.7-0.1c0.2-0.1,0.4-0.2,0.5-0.3c0.1-0.1,0.2-0.3,0.3-0.5
						c0.1-0.2,0.1-0.4,0.1-0.6C-5.3-242.9-8.7-242.9-8.7-242.9z M-4.9-241.2c-0.2,0.3-0.5,0.5-0.9,0.6c-0.3,0.1-0.7,0.2-1.1,0.2
						s-0.8-0.1-1.2-0.2c-0.4-0.1-0.7-0.4-0.9-0.6c-0.3-0.3-0.5-0.6-0.6-1c-0.1-0.4-0.2-0.8-0.2-1.2c0-0.4,0.1-0.9,0.2-1.2
						s0.4-0.7,0.6-0.9c0.3-0.3,0.6-0.5,0.9-0.6c0.4-0.1,0.8-0.2,1.2-0.2c0.5,0,1,0.1,1.4,0.3c0.4,0.2,0.8,0.5,1.1,0.9l-0.8,0.6
						c-0.2-0.2-0.4-0.4-0.7-0.6c-0.3-0.2-0.6-0.3-1-0.3c-0.2,0-0.5,0-0.7,0.1c-0.2,0.1-0.4,0.2-0.6,0.4c-0.2,0.2-0.3,0.3-0.4,0.5
						c-0.1,0.2-0.2,0.4-0.2,0.7h4.5c0,0.1,0,0.1,0,0.2v0.2c0,0.5-0.1,0.9-0.2,1.2C-4.5-241.8-4.6-241.5-4.9-241.2 M-9.1-237.8h-6.6
						v-1h2.7v-7.5h1.2v7.5h2.7V-237.8z M-19.5-241.1c-0.2,0.2-0.4,0.4-0.7,0.5c-0.3,0.1-0.6,0.2-0.9,0.2c-0.2,0-0.4,0-0.6-0.1
						c-0.2-0.1-0.4-0.1-0.5-0.2c-0.2-0.1-0.3-0.2-0.4-0.3c-0.1-0.1-0.2-0.3-0.3-0.4h0c0,0.1,0,0.3,0,0.4c0,0.2,0,0.3,0,0.5h-1.1
						c0-0.2,0-0.4,0-0.6c0-0.2,0-0.4,0-0.6v-4.5h1.1v3c0,0.6,0.1,1,0.4,1.4c0.3,0.3,0.7,0.5,1.1,0.5c0.3,0,0.5,0,0.6-0.1
						c0.2-0.1,0.3-0.2,0.4-0.4c0.1-0.2,0.2-0.3,0.2-0.6c0-0.2,0.1-0.4,0.1-0.7v-3.2h1.1v3.5c0,0.3,0,0.6-0.1,0.9
						C-19.2-241.6-19.4-241.3-19.5-241.1 M-26.4-237.8c-0.2,0-0.4-0.1-0.5-0.2c-0.1-0.1-0.2-0.3-0.2-0.5c0-0.2,0.1-0.4,0.2-0.5
						c0.1-0.1,0.3-0.2,0.5-0.2c0.2,0,0.4,0.1,0.5,0.2c0.1,0.1,0.2,0.3,0.2,0.5c0,0.2-0.1,0.4-0.2,0.5
						C-26-237.9-26.2-237.8-26.4-237.8 M-27-246.3h1.1v5.7H-27C-27-240.6-27-246.3-27-246.3z M-29.7-243.9c0-0.5-0.1-0.9-0.4-1.2
						c-0.3-0.3-0.7-0.5-1.2-0.5c-0.1,0-0.3,0-0.4,0c-0.1,0-0.3,0.1-0.4,0.2c-0.1,0.1-0.2,0.2-0.3,0.3c-0.1,0.1-0.1,0.3-0.1,0.4
						c0,0.2,0.1,0.4,0.2,0.6c0.2,0.1,0.4,0.3,0.6,0.3c0.2,0.1,0.5,0.1,0.8,0.1c0.3,0,0.6,0,0.9,0h0.3
						C-29.7-243.6-29.7-243.9-29.7-243.9z M-28.6-245.1v2.5c0,0.3,0,0.6-0.1,0.9c-0.1,0.3-0.2,0.5-0.4,0.7c-0.2,0.2-0.4,0.4-0.7,0.5
						c-0.3,0.1-0.7,0.2-1.1,0.2c-0.5,0-0.9-0.1-1.3-0.2c-0.4-0.2-0.7-0.4-1-0.6l0.6-0.7c0.2,0.2,0.4,0.3,0.7,0.5
						c0.3,0.1,0.6,0.2,0.9,0.2c0.4,0,0.8-0.1,1-0.3c0.3-0.2,0.4-0.5,0.4-0.9v-0.2c-0.5,0-1,0-1.4-0.1c-0.5,0-0.9-0.1-1.3-0.3
						c-0.4-0.1-0.7-0.3-0.9-0.6c-0.2-0.3-0.3-0.6-0.3-1c0-0.3,0.1-0.6,0.2-0.8c0.1-0.2,0.3-0.4,0.5-0.5c0.2-0.1,0.4-0.2,0.7-0.3
						c0.2-0.1,0.5-0.1,0.7-0.1c0.4,0,0.8,0.1,1.1,0.3c0.3,0.2,0.6,0.4,0.8,0.7h0c0-0.3,0-0.5,0.1-0.8h1c0,0.1-0.1,0.3-0.1,0.5
						C-28.6-245.5-28.6-245.3-28.6-245.1 M-35.4-241.1c-0.2,0.2-0.4,0.4-0.7,0.5c-0.3,0.1-0.6,0.2-0.9,0.2c-0.4,0-0.8-0.1-1.1-0.3
						c-0.3-0.2-0.6-0.4-0.7-0.7h0v4.2H-40v-9.1h1.1v3c0,0.6,0.1,1,0.4,1.4c0.3,0.3,0.7,0.5,1.1,0.5c0.3,0,0.5,0,0.6-0.1
						c0.2-0.1,0.3-0.2,0.4-0.4c0.1-0.2,0.2-0.3,0.2-0.6c0-0.2,0.1-0.4,0.1-0.7v-3.2h1.1v3.5c0,0.3,0,0.6-0.1,0.9
						C-35.1-241.6-35.2-241.3-35.4-241.1 M-42.2-245.3c-0.2-0.1-0.5-0.2-0.8-0.2c-0.3,0-0.6,0.1-0.8,0.2c-0.2,0.1-0.4,0.3-0.6,0.4
						c-0.2,0.2-0.3,0.4-0.4,0.7s-0.1,0.5-0.1,0.8c0,0.3,0,0.5,0.1,0.8c0.1,0.2,0.2,0.5,0.4,0.7c0.2,0.2,0.4,0.3,0.6,0.4
						c0.2,0.1,0.5,0.2,0.8,0.2c0.3,0,0.5-0.1,0.8-0.2c0.2-0.1,0.4-0.3,0.5-0.5l0.8,0.7c-0.2,0.3-0.5,0.5-0.9,0.7
						c-0.4,0.2-0.8,0.2-1.2,0.2c-0.4,0-0.8-0.1-1.2-0.2c-0.4-0.1-0.7-0.3-1-0.6c-0.3-0.3-0.5-0.6-0.6-0.9c-0.2-0.4-0.2-0.8-0.2-1.2
						c0-0.5,0.1-0.9,0.2-1.2c0.2-0.4,0.4-0.7,0.6-0.9c0.3-0.3,0.6-0.5,1-0.6c0.4-0.1,0.8-0.2,1.2-0.2c0.5,0,0.9,0.1,1.2,0.2
						c0.4,0.2,0.7,0.4,0.9,0.7l-0.8,0.7C-41.8-245-42-245.2-42.2-245.3 M-46.7-240.6h-1.5l-2.4-2.5h0v5.9h-1.1v-9.1h1.1v3h0l2.6-3
						h1.6l-2.9,3.1C-49.4-243.2-46.7-240.6-46.7-240.6z M-54-245.3c-0.2-0.1-0.5-0.2-0.8-0.2c-0.3,0-0.6,0.1-0.8,0.2
						c-0.2,0.1-0.4,0.3-0.6,0.4c-0.2,0.2-0.3,0.4-0.4,0.7c-0.1,0.2-0.1,0.5-0.1,0.8c0,0.3,0,0.5,0.1,0.8c0.1,0.2,0.2,0.5,0.4,0.7
						c0.2,0.2,0.4,0.3,0.6,0.4c0.2,0.1,0.5,0.2,0.8,0.2c0.3,0,0.5-0.1,0.8-0.2c0.2-0.1,0.4-0.3,0.5-0.5l0.8,0.7
						c-0.2,0.3-0.5,0.5-0.9,0.7c-0.4,0.2-0.8,0.2-1.2,0.2c-0.4,0-0.8-0.1-1.2-0.2c-0.4-0.1-0.7-0.3-1-0.6c-0.3-0.3-0.5-0.6-0.6-0.9
						c-0.2-0.4-0.2-0.8-0.2-1.2c0-0.5,0.1-0.9,0.2-1.2c0.2-0.4,0.4-0.7,0.6-0.9c0.3-0.3,0.6-0.5,1-0.6c0.4-0.1,0.8-0.2,1.2-0.2
						c0.5,0,0.9,0.1,1.2,0.2c0.4,0.2,0.7,0.4,0.9,0.7l-0.8,0.7C-53.6-245-53.8-245.2-54-245.3 M-60.1-244.2
						c-0.1-0.2-0.2-0.5-0.4-0.7c-0.2-0.2-0.4-0.3-0.6-0.5c-0.2-0.1-0.5-0.2-0.8-0.2c-0.3,0-0.6,0.1-0.8,0.2
						c-0.2,0.1-0.4,0.3-0.6,0.5c-0.2,0.2-0.3,0.4-0.4,0.7c-0.1,0.2-0.1,0.5-0.1,0.8c0,0.3,0,0.5,0.1,0.8c0.1,0.2,0.2,0.5,0.4,0.7
						s0.4,0.3,0.6,0.4c0.2,0.1,0.5,0.2,0.8,0.2c0.3,0,0.6-0.1,0.8-0.2c0.2-0.1,0.4-0.3,0.6-0.4s0.3-0.4,0.4-0.7
						c0.1-0.2,0.1-0.5,0.1-0.8C-60-243.7-60-244-60.1-244.2 M-59.7-241.3c-0.3,0.3-0.6,0.5-1,0.6c-0.4,0.1-0.8,0.2-1.2,0.2
						c-0.4,0-0.8-0.1-1.2-0.2c-0.4-0.1-0.7-0.4-1-0.6c-0.3-0.3-0.5-0.6-0.6-0.9c-0.2-0.4-0.2-0.8-0.2-1.2c0-0.4,0.1-0.8,0.2-1.2
						c0.2-0.4,0.4-0.7,0.6-1c0.3-0.3,0.6-0.5,1-0.6c0.4-0.1,0.8-0.2,1.2-0.2c0.4,0,0.8,0.1,1.2,0.2c0.4,0.1,0.7,0.4,1,0.6
						c0.3,0.3,0.5,0.6,0.6,1c0.2,0.4,0.2,0.8,0.2,1.2c0,0.4-0.1,0.8-0.2,1.2C-59.2-241.8-59.4-241.5-59.7-241.3 M-67.4-246.3h1.1
						v9.1h-1.1C-67.4-237.2-67.4-246.3-67.4-246.3z M-70.2-244.5c-0.1-0.2-0.3-0.3-0.5-0.4c-0.2-0.1-0.4-0.2-0.7-0.2
						c-0.3,0-0.5-0.1-0.8-0.1h-1.5v2.9h1.6c0.6,0,1.1-0.1,1.5-0.3c0.3-0.2,0.5-0.6,0.5-1.1C-70-244.1-70.1-244.3-70.2-244.5
						 M-73.6-238.8h1.4c0.6,0,1-0.1,1.4-0.3c0.3-0.2,0.5-0.5,0.5-1c0-0.2,0-0.4-0.1-0.6c-0.1-0.2-0.2-0.3-0.4-0.4
						c-0.2-0.1-0.3-0.2-0.5-0.2c-0.2-0.1-0.4-0.1-0.6-0.1h-1.5C-73.6-241.4-73.6-238.8-73.6-238.8z M-69.4-242.4
						c-0.2,0.2-0.4,0.3-0.6,0.4c-0.2,0.1-0.5,0.2-0.8,0.2v0c0.4,0.1,0.8,0.3,1.1,0.7c0.3,0.3,0.4,0.7,0.4,1.2c0,0.4-0.1,0.7-0.2,1
						c-0.2,0.3-0.4,0.5-0.6,0.7c-0.3,0.2-0.5,0.3-0.9,0.4c-0.3,0.1-0.6,0.1-1,0.1h-2.9v-8.5h2.8c0.4,0,0.9,0.1,1.2,0.2
						c0.4,0.1,0.7,0.2,1,0.4c0.3,0.2,0.5,0.4,0.7,0.8c0.2,0.3,0.3,0.7,0.3,1.1c0,0.3,0,0.6-0.1,0.8
						C-69.1-242.8-69.2-242.6-69.4-242.4"/>
				</g>
				<g id="g24" transform="translate(112.5918,108.7827)">
					<path id="path26" class="st2" d="M-98.7-232.2l-37.5-25.2c-0.3-0.2-0.6-0.3-0.9-0.3c0,0,0,0,0,0s0,0,0,0
						c-0.3,0-0.7,0.1-0.9,0.3c0,0,0,0,0,0l-37.5,25.2c-0.1,0.1-0.1,0.2-0.1,0.3c0,0.1,0,0.2,0.1,0.3l37.5,25.2
						c0.3,0.2,0.6,0.3,1,0.3c0.3,0,0.7-0.1,1-0.3l37.5-25.2c0.1-0.1,0.1-0.2,0.1-0.3C-98.6-232-98.6-232.1-98.7-232.2 M-97.1-229.2
						l-37.5,25.2c-1.6,1.1-3.7,1.1-5.3,0l-37.5-25.2c-0.9-0.6-1.5-1.6-1.5-2.7c0-1.1,0.5-2.1,1.5-2.7l37.5-25.2
						c0.4-0.2,0.7-0.4,1.1-0.6v-17c0-0.8,0.7-1.5,1.5-1.5c0.8,0,1.5,0.7,1.5,1.5v17c0.4,0.1,0.8,0.3,1.1,0.6l36,24.2v-14.4
						c0-0.8,0.7-1.5,1.5-1.5c0.8,0,1.5,0.7,1.5,1.5v18.2C-95.6-230.9-96.2-229.9-97.1-229.2 M-29.2-236.6c0.3,1.6,1,2.8,2,3.8
						c1.1,0.9,2.5,1.4,4.2,1.4c1.6,0,2.8-0.5,3.8-1.4c1-0.9,1.6-2.2,1.8-3.8C-17.4-236.6-29.2-236.6-29.2-236.6z M-18.3-229.6
						c-1.3,0.8-2.9,1.2-4.7,1.2c-1.8,0-3.5-0.4-4.9-1.3c-1.4-0.8-2.6-2-3.4-3.5c-0.8-1.5-1.2-3.2-1.2-5.1c0-1.9,0.4-3.6,1.3-5
						c0.9-1.5,2.1-2.6,3.6-3.5c1.5-0.8,3.3-1.3,5.2-1.3c1.1,0,2.2,0.2,3.4,0.6c1.2,0.4,2.2,0.9,3,1.5c0.4,0.3,0.6,0.6,0.6,1.1
						c0,0.4-0.2,0.8-0.6,1.2c-0.3,0.2-0.6,0.4-1.1,0.4c-0.4,0-0.8-0.1-1.2-0.4c-0.5-0.4-1.1-0.7-1.9-1c-0.8-0.3-1.5-0.4-2.2-0.4
						c-1.8,0-3.3,0.5-4.5,1.5c-1.2,1-2,2.3-2.2,4h13.4c0.5,0,0.9,0.1,1.2,0.4c0.3,0.3,0.5,0.7,0.5,1.1c0,1.9-0.4,3.5-1.1,4.9
						C-15.9-231.5-17-230.4-18.3-229.6 M2.3-229.4c-1.3,0.7-2.8,1.1-4.4,1.1c-1.2,0-2.3-0.2-3.3-0.6c-1-0.4-1.9-1-2.7-1.7v0.4
						c0,0.5-0.2,1-0.5,1.3c-0.3,0.3-0.8,0.5-1.3,0.5c-0.5,0-0.9-0.2-1.3-0.5c-0.3-0.3-0.5-0.8-0.5-1.3V-246c0-0.5,0.2-0.9,0.5-1.3
						c0.3-0.3,0.8-0.5,1.3-0.5c0.5,0,1,0.2,1.3,0.5C-8.2-247-8-246.6-8-246v9.9c0,0.8,0.2,1.6,0.7,2.3c0.5,0.7,1.1,1.2,1.9,1.6
						c0.8,0.4,1.7,0.6,2.7,0.6c1.7,0,3.1-0.5,4.1-1.5c1-1,1.5-2.4,1.5-4.3v-8.7c0-0.5,0.2-0.9,0.5-1.3c0.3-0.3,0.8-0.5,1.3-0.5
						c0.5,0,0.9,0.2,1.3,0.5c0.3,0.3,0.5,0.8,0.5,1.3v8.7c0,1.9-0.4,3.5-1.1,4.9C4.6-231.2,3.6-230.1,2.3-229.4 M24.1-241.6
						c-0.5-1-1.3-1.8-2.2-2.3c-1-0.6-2-0.8-3.2-0.8c-1.2,0-2.3,0.3-3.2,0.8c-1,0.6-1.7,1.3-2.2,2.3c-0.5,1-0.8,2.1-0.8,3.4
						c0,1.3,0.3,2.4,0.8,3.4c0.5,1,1.3,1.8,2.2,2.4c1,0.6,2,0.8,3.2,0.8c1.2,0,2.3-0.3,3.2-0.8c1-0.6,1.7-1.4,2.2-2.4
						c0.5-1,0.8-2.1,0.8-3.4C24.9-239.5,24.7-240.6,24.1-241.6 M23.7-229.7c-1.5,0.8-3.1,1.3-5,1.3c-1.9,0-3.6-0.4-5-1.3
						c-1.5-0.8-2.6-2-3.5-3.5c-0.8-1.5-1.2-3.2-1.2-5.1c0-1.9,0.4-3.6,1.2-5c0.8-1.5,2-2.6,3.5-3.5c1.5-0.8,3.2-1.3,5-1.3
						c1.9,0,3.6,0.4,5,1.3c1.5,0.8,2.6,2,3.4,3.5c0.8,1.5,1.2,3.2,1.2,5c0,1.9-0.4,3.6-1.3,5.1C26.3-231.6,25.1-230.5,23.7-229.7
						 M56.1-230.4c-1.3,1.3-2.9,2-5,2c-1.3,0-2.5-0.2-3.5-0.7c-1.1-0.5-1.9-1.2-2.6-2c-0.6,0.9-1.4,1.6-2.3,2.1
						c-1,0.5-2,0.7-3.2,0.7c-1,0-1.9-0.2-2.7-0.5c-0.8-0.3-1.6-0.8-2.2-1.4c0,0.5-0.2,0.9-0.5,1.2c-0.3,0.3-0.8,0.5-1.3,0.5
						c-0.5,0-0.9-0.2-1.3-0.5c-0.3-0.3-0.5-0.8-0.5-1.3V-246c0-0.5,0.2-0.9,0.5-1.3c0.3-0.3,0.8-0.5,1.3-0.5c0.5,0,1,0.2,1.3,0.5
						c0.3,0.3,0.5,0.8,0.5,1.3v9.9c0,1.3,0.4,2.4,1.2,3.2c0.8,0.8,1.8,1.3,3.1,1.3c1.2,0,2.2-0.4,2.9-1.1c0.7-0.7,1.1-1.8,1.1-3.3
						V-246c0-0.5,0.2-0.9,0.5-1.3c0.3-0.3,0.8-0.5,1.3-0.5c0.5,0,1,0.2,1.3,0.5c0.3,0.3,0.5,0.8,0.5,1.3v9.9c0,1.3,0.4,2.4,1.2,3.2
						c0.8,0.8,1.8,1.3,3,1.3c1.2,0,2.2-0.4,2.9-1.1c0.7-0.7,1.1-1.8,1.1-3.3V-246c0-0.5,0.2-0.9,0.5-1.3c0.3-0.3,0.8-0.5,1.3-0.5
						c0.5,0,1,0.2,1.3,0.5c0.3,0.3,0.5,0.8,0.5,1.3v10.1C58-233.6,57.3-231.7,56.1-230.4 M-39.1-229.4c-1.3,0.7-2.7,1.1-4.4,1.1
						c-1.2,0-2.3-0.2-3.3-0.6c-1-0.4-1.9-1-2.7-1.7v8.6c0,0.5-0.2,1-0.5,1.3c-0.3,0.3-0.8,0.5-1.3,0.5c-0.5,0-0.9-0.2-1.3-0.5
						c-0.3-0.3-0.5-0.8-0.5-1.3V-246c0-0.5,0.2-0.9,0.5-1.3c0.3-0.3,0.8-0.5,1.3-0.5c0.5,0,1,0.2,1.3,0.5c0.3,0.3,0.5,0.8,0.5,1.3
						v9.9c0,0.8,0.2,1.6,0.7,2.3c0.5,0.7,1.1,1.2,1.9,1.6c0.8,0.4,1.7,0.6,2.7,0.6c1.7,0,3-0.5,4.1-1.5c1-1,1.5-2.4,1.5-4.3v-8.7
						c0-0.5,0.2-0.9,0.5-1.3c0.3-0.3,0.8-0.5,1.3-0.5c0.5,0,0.9,0.2,1.3,0.5c0.3,0.3,0.5,0.8,0.5,1.3v8.7c0,1.9-0.4,3.5-1.1,4.9
						C-36.8-231.2-37.8-230.1-39.1-229.4 M-59.5-230c0-1.3-0.3-2.4-0.8-3.4c-0.6-1-1.3-1.8-2.3-2.4c-1-0.6-2-0.9-3.2-0.9
						c-1.2,0-2.3,0.3-3.2,0.9c-1,0.6-1.7,1.4-2.3,2.4c-0.5,1-0.7,2.4-0.7,3.6s0.3,2.4,0.8,3.4c0.5,1,1.3,1.8,2.2,2.4
						c1,0.6,2,0.9,3.2,0.9c1.2,0,2.2-0.3,3.2-0.9c1-0.6,1.7-1.4,2.3-2.4c0.6-1,0.8-2.1,0.8-3.4C-59.4-229.8-59.5-230-59.5-230z
						 M-60.8-221.3c-1.5,0.9-3.1,1.3-5,1.3c-1.8,0-3.5-0.4-4.9-1.3c-1.5-0.9-2.6-2-3.5-3.5c-0.9-1.5-1.3-3.1-1.3-5v-16.1
						c0-0.5,0.2-1,0.5-1.3c0.3-0.3,0.8-0.5,1.3-0.5c0.5,0,1,0.2,1.3,0.5c0.3,0.3,0.5,0.8,0.5,1.3v8.7l1-0.8c0,0,4-3.6,9.2-1.3
						c5,2.2,5.6,7.6,5.6,9.4c0,1.8-0.4,3.5-1.3,5C-58.1-223.3-59.3-222.1-60.8-221.3"/>
				</g>
			</g>
		</g>
	</g>
</g>
</svg>
