<svg id="f1f37b1f-20fb-4a95-a1d5-c99d06d3f956" data-name="Layer 1" xmlns="http://www.w3.org/2000/svg" viewBox="0 0 414.02 678.88"><title>2Artboard 1</title><path d="M175.92,310.05c21,8.27,41.83,8.19,62.76-.23,4.84-1.94,6.77-4.88,7.37-10.24,8.06-73.09,3.93-145.53-11.27-217.39-.55-2.62-3-5.89-5.4-6.88a56.94,56.94,0,0,0-44.5-.06,10.69,10.69,0,0,0-5.55,6.8c-8.73,46.66-16.37,93.46-16.16,141.24,1.69,25.38,3.61,50.75,4.92,76.15C168.4,305.4,170.93,308.09,175.92,310.05ZM355.45,191.53c-1.69-36.16-9.32-70.91-27.1-102.88-1.29-2.32-2.94-5-5.14-6.16-12.92-6.55-26-6.58-39.21-.37a15.67,15.67,0,0,0,.59,2.43c17,37.57,23.45,77.2,23,118.18-.39,32.29-5,64-12,95.5-.69,3.12-1.6,5.6,2.57,7.14,11.7,4.33,23.53,5.37,35.12.57a15.33,15.33,0,0,0,7.66-8.55C351.84,263,357.13,227.65,355.45,191.53ZM101.32,78.62c-7.26,1.52-13.54,4-16.65,11.74S77.22,105.28,74.37,113c-22.8,62-19.6,124.27-.71,186.5a9.33,9.33,0,0,0,3.56,4.74c10.19,6.6,33.5,6.32,42.23-1.59C103,228.54,97.88,154.79,130.36,82.27A43.88,43.88,0,0,0,101.32,78.62Zm109,404.64c6.36,1.07,5.89-4,6.51-7.43Q229,410,240.69,344.13c1.86-10.57,2.68-21.33,4.09-33-25.34,11.4-49.72,11.65-74.91.13,0,2.3-.13,3.66,0,5a1559.33,1559.33,0,0,0,27.19,159.93C199.22,485.78,205.14,482.38,210.36,483.26Zm29.77-2.62c38.71-47.11,69.58-98.83,91.78-155.67,2-5.15,3.63-10.45,5.75-16.59-15.51,6.3-29.63,5.18-44.16-.76-15.23,61.48-38,119.7-65.87,176C233.3,486.35,236.66,484.87,240.13,480.64Zm-65.22,1.16c3.67,4.46,7.18,3.56,11.74,1.94-28.28-56.55-50.68-115-66.16-176.23-14.68,6.18-28.57,7.13-43.47,1a19.17,19.17,0,0,0,.42,3.38C99.77,374.39,132.84,430.66,174.92,481.79ZM390.33,95.92C384.74,86,374.78,83.84,365,90.54,404.17,158,398.82,226.8,369.11,296c13.84,1.83,18.67-.9,23.78-12,11.65-25.19,18.9-51.54,20.65-79.26C416,166.35,409.43,129.76,390.33,95.92ZM45,295.92C15.27,226.69,10,157.86,49.21,90.35c-11-6.37-20.41-4.39-25.43,6C18.06,108.12,12,120,8.42,132.55c-14.9,51.92-9.65,102.4,12.84,151.3C26.44,295.12,31.28,297.9,45,295.92ZM236.39,493.51c-5.74-2.23-29.89-3.29-29.89-3.29s-24.84,1.06-30.58,3.29c2.29,19.3,4.38,38.21,7,57,.29,2.12,3.29,5.43,5.16,5.52,5.4.24,15.58.34,17.88.36h.47c2.29,0,12.48-.12,17.88-.36,1.87-.08,4.87-3.4,5.16-5.52C232,531.71,234.11,512.81,236.39,493.51ZM282.17,78.77c12.46-5.89,25.18-6.31,38.5-1.83C304.24,44,236.79-3.3,214.66,2.07,250.8,29.06,260.23,39.74,282.17,78.77ZM93.89,76.28a51.25,51.25,0,0,1,36.82,1.81c10.41-14.74,19.17-29.58,30.35-42.3S186,12.26,199.29,0C154.52,12.53,119.25,37.29,93.89,76.28Zm139.06-3.79c-1.4-6.33-2.1-11.58-3.73-16.52C223.59,38.89,218,21.81,211.62,5c-2.2-5.85-6.43-5.66-9.34-.05-10.82,20.87-15.82,43.55-21.17,67.51C198.73,65.73,215.35,65.6,232.95,72.48ZM372.64,300.24c-4.5-.48-6,1.63-7.59,5.14-20,44.78-46.35,85.74-75.67,124.84-10.87,14.5-22.46,28.47-33.71,42.68C305.89,420.44,352.78,365.48,386,299.1,380.74,299.61,376.61,300.67,372.64,300.24ZM150.72,463c-7.36-9.2-15-18.22-22.1-27.6-31.09-41-58.89-84-80.28-131-.85-1.87-3.76-3.46-6-3.91-4.4-.9-9-.91-14.14-1.35,31.94,64.28,77.38,118,126.39,169.08C153.32,466.52,152.08,464.74,150.72,463ZM361.88,85.61,382,82.33C347.46,34,299.11,9.66,241.59,1.26c24.49,6.18,47.41,16,68.28,30.54A196.81,196.81,0,0,1,361.88,85.61Zm-188-83.95C132.62-2.14,48.65,46.86,33,82.43l19.11,3.19C81,42.33,121.08,13.71,173.87,1.66ZM72.6,382.89c-2.82-5.53-6.89-10.43-10.38-15.62l-1.15.76L172.68,588l2.65-1.4a37.07,37.07,0,0,0-1.55-4.22Q123.26,482.62,72.6,382.89Zm73.84,88.88c-1.29-3.46-3.82-6.46-5.77-9.68l-1.22.69,44.29,120.46,2.42-.69a18.21,18.21,0,0,0-.51-4.13Q166.14,525.06,146.43,471.77Zm195.19-88.88q-50.77,99.68-101.19,199.53a37.06,37.06,0,0,0-1.55,4.22l2.65,1.4L353.15,368l-1.15-.76C348.52,372.46,344.44,377.36,341.63,382.89Zm-68.07,79.2c-2,3.22-4.48,6.22-5.77,9.68Q248,525,228.58,578.42a18.22,18.22,0,0,0-.51,4.13l2.42.69,44.29-120.46Z" style="fill:#2d3b6e"/><path d="M206.73,587.89a45.5,45.5,0,1,0,45.5,45.5A45.5,45.5,0,0,0,206.73,587.89Zm-.63,77.77-19.27-27.26,19.27,11.29Zm0-20-19.4-11.37,19.4-8.5Zm0-21.23-18.77,8.23,18.77-31.55Zm1.25-23.34,19,31.68-19-8.34Zm0,64.54v-16l19.27-11.29Zm0-20V625.82l19.41,8.51Z" style="fill:#2d3b6e"/></svg>